<svg width="48" height="48" viewBox="0 0 48 48" fill="none" xmlns="http://www.w3.org/2000/svg">
<g clip-path="url(#clip0_1_2516)">
<path d="M35.2002 1.47581L35.1994 1.47581C30.5716 1.49755 26.3101 3.97657 24.0006 7.974C21.1172 2.93534 15.2142 0.431719 9.57437 1.88209C3.86206 3.351 -0.129305 8.50281 -0.124966 14.4009C-0.124966 21.3133 4.01266 29.3411 9.07787 35.6319C11.6124 38.7798 14.3845 41.4995 16.9978 43.4336C19.6055 45.3635 22.0748 46.5258 24 46.5258C25.9253 46.5258 28.3946 45.3635 31.0023 43.4336C33.6156 41.4995 36.3877 38.7798 38.9222 35.6319C43.9874 29.3411 48.125 21.3133 48.125 14.4008V14.4007C48.1168 7.26573 42.3347 1.4841 35.2002 1.47581ZM1.72503 14.4008V14.4007C1.72194 9.05949 5.5332 4.47803 10.7856 3.50889C16.038 2.54015 21.2332 5.4603 23.136 10.4508L23.136 10.4509C23.2729 10.8092 23.6167 11.0453 24 11.0453C24.3834 11.0453 24.7272 10.8092 24.8641 10.4509L24.8641 10.4508C26.7668 5.4603 31.9621 2.54015 37.2145 3.50889C42.4669 4.47803 46.2781 9.05949 46.275 14.4007V14.4008C46.275 20.9397 42.1974 28.5115 37.3531 34.4588C34.9332 37.4298 32.3275 39.9884 29.9553 41.8029C28.7692 42.7102 27.6436 43.4298 26.6306 43.9221C25.6156 44.4153 24.7229 44.6758 24 44.6758C23.2771 44.6758 22.3844 44.4153 21.3695 43.9221C20.3565 43.4298 19.2309 42.7102 18.0447 41.8029C15.6725 39.9884 13.0669 37.4298 10.647 34.4588C5.80268 28.5115 1.72503 20.9397 1.72503 14.4008Z" fill="#1F1F1F" stroke="#1F1F1F" stroke-width="0.25"/>
<path d="M17.475 18.4009C17.475 18.9117 17.8891 19.3259 18.4 19.3259C18.9108 19.3259 19.325 18.9117 19.325 18.4009C19.325 16.1225 17.478 14.2759 15.2 14.2759C12.922 14.2759 11.075 16.1225 11.075 18.4009C11.075 18.9117 11.4891 19.3259 12 19.3259C12.5108 19.3259 12.925 18.9117 12.925 18.4009C12.925 17.1441 13.9436 16.1259 15.2 16.1259C16.4564 16.1259 17.475 17.1441 17.475 18.4009Z" fill="#1F1F1F" stroke="#1F1F1F" stroke-width="0.25"/>
<path d="M30.9551 23.9406L30.9548 23.9408C30.955 23.9407 30.953 23.9421 30.9486 23.9456L30.9305 23.9597C30.9149 23.972 30.8923 23.99 30.8638 24.0134C30.8068 24.0602 30.7262 24.1285 30.6298 24.2156C30.4368 24.3899 30.1818 24.639 29.9277 24.9416C29.4157 25.5514 28.925 26.3587 28.925 27.2008C28.925 28.0354 29.4158 28.8426 29.9281 29.4546C30.1823 29.7582 30.4375 30.0087 30.6304 30.1841C30.7268 30.2718 30.8075 30.3405 30.8644 30.3877C30.9193 30.4331 30.9513 30.4576 30.954 30.4597L30.9541 30.4599L30.9551 30.4606C31.3638 30.7672 31.4465 31.347 31.1399 31.7554C30.8336 32.1642 30.2537 32.2473 29.8449 31.9406L29.8428 31.939L29.8428 31.939C28.9643 31.2506 28.2309 30.3955 27.6851 29.423C26.6097 30.1794 25.3166 30.5673 24 30.5258C22.6837 30.5665 21.3914 30.1783 20.3167 29.4215C19.7702 30.3944 19.0365 31.2503 18.1571 31.939L18.1551 31.9406L18.1551 31.9406C17.7463 32.2473 17.1663 32.1642 16.8601 31.7554C16.5535 31.347 16.6362 30.7672 17.0449 30.4606L17.0461 30.4597L17.0461 30.4597C17.046 30.4598 17.0461 30.4596 17.0465 30.4593C17.0484 30.4579 17.0561 30.452 17.0696 30.4414C17.0852 30.4291 17.1077 30.4111 17.1362 30.3877C17.1933 30.3409 17.2739 30.2727 17.3703 30.1856C17.5633 30.0112 17.8184 29.7622 18.0724 29.4596C18.5843 28.8498 19.075 28.0427 19.075 27.2008C19.075 26.366 18.5842 25.5586 18.0719 24.9466C17.8177 24.6429 17.5625 24.3925 17.3695 24.217C17.2732 24.1294 17.1925 24.0606 17.1355 24.0135C17.0806 23.968 17.0486 23.9435 17.046 23.9414C17.0459 23.9413 17.0458 23.9413 17.0458 23.9413L17.0449 23.9406L17.0449 23.9406C16.6362 23.6339 16.5535 23.0545 16.8601 22.6457L30.9551 23.9406ZM30.9551 23.9406C31.3638 23.6339 31.4465 23.0544 31.1398 22.6457C30.8337 22.2371 30.2544 22.1545 29.8458 22.4599L30.9551 23.9406Z" fill="#1F1F1F" stroke="#1F1F1F" stroke-width="0.25"/>
<path d="M32.8001 14.2759L32.7998 14.2759C30.5227 14.2783 28.6778 16.1236 28.675 18.4007V18.4009C28.675 18.9117 29.0891 19.3259 29.6 19.3259C30.1108 19.3259 30.525 18.9117 30.525 18.4009C30.525 17.1441 31.5436 16.1259 32.8 16.1259C34.0563 16.1259 35.075 17.1441 35.075 18.4009C35.075 18.9117 35.4891 19.3259 36 19.3259C36.5108 19.3259 36.925 18.9117 36.925 18.4009V18.4007C36.9221 16.1236 35.0772 14.2783 32.8001 14.2759Z" fill="#1F1F1F" stroke="#1F1F1F" stroke-width="0.25"/>
</g>
<defs>
<clipPath id="clip0_1_2516">
<rect width="48" height="48" fill="white"/>
</clipPath>
</defs>
</svg>
