<svg width="100" height="130" viewBox="0 0 100 130" fill="none" xmlns="http://www.w3.org/2000/svg">
<g clip-path="url(#clip0_1_2421)">
<path d="M39.8176 105.494C39.7163 104.996 39.5137 104.697 39.2097 104.697C38.8045 104.697 38.6018 104.996 38.6018 105.594C38.5005 106.192 38.5005 106.889 38.5005 107.785C38.5005 107.885 38.5005 107.985 38.5005 108.084C38.5005 108.184 38.5005 108.283 38.5005 108.383C38.5005 108.483 38.5005 108.582 38.5005 108.682C38.5005 108.782 38.5005 108.881 38.5005 108.881C38.5005 109.778 38.5005 110.575 38.6018 111.172C38.7031 111.77 38.9058 112.169 39.2097 112.169C39.615 112.169 39.8176 111.87 39.9189 111.272C40.0203 110.674 40.0203 109.877 40.0203 108.881H42.4519C42.4519 110.575 42.3506 111.87 42.0466 112.965C41.7427 113.962 40.8308 114.46 39.311 114.46C37.7913 114.46 36.6768 113.862 36.0689 112.667C35.461 111.471 35.157 110.077 35.157 108.483C35.157 106.789 35.461 105.395 36.1702 104.199C36.7781 103.004 37.8926 102.406 39.4124 102.506C39.615 102.506 39.8176 102.605 39.9189 102.605C40.0203 102.605 40.2229 102.705 40.2229 102.705C40.3242 102.805 40.4255 102.805 40.4255 102.805C40.5269 102.805 40.5269 102.904 40.5269 102.904C40.6282 102.904 40.6282 102.904 40.7295 102.805C40.8308 102.805 40.9321 102.705 41.0334 102.605H42.4519V107.387H40.1216C40.0203 106.59 39.9189 105.992 39.8176 105.494Z" fill="white"/>
<path d="M46.9098 104.996C46.8085 105.096 46.7072 105.195 46.6059 105.295V111.67C46.7072 111.87 46.8085 111.969 46.9098 112.069C47.0111 112.169 47.2138 112.169 47.5177 112.169V114.261H42.6545V112.169C42.8571 112.169 43.0598 112.169 43.2624 112.069C43.465 111.969 43.465 111.87 43.5664 111.77V105.295C43.5664 105.295 43.5664 105.295 43.5664 105.195C43.465 105.096 43.465 105.096 43.3637 104.996C43.2624 104.996 43.1611 104.897 43.0598 104.897H42.9585H42.8571V102.605H47.7204V104.797C47.2138 104.797 47.0111 104.897 46.9098 104.996Z" fill="white"/>
<path d="M49.848 112.169C49.9493 112.169 49.9493 112.169 50.0507 112.169C50.152 112.169 50.152 112.169 50.2533 112.069C50.3546 112.069 50.3546 111.969 50.4559 111.969C50.4559 111.969 50.4559 111.87 50.5572 111.87L50.6586 111.77V105.195C50.6586 105.096 50.6586 104.996 50.6586 104.996C50.6586 104.996 50.5572 104.996 50.3546 104.996C50.152 105.096 50.0507 105.195 49.9493 105.295C49.848 105.395 49.848 105.494 49.7467 105.594C49.7467 105.693 49.7467 105.693 49.7467 105.793C49.7467 105.893 49.7467 105.893 49.7467 105.992V106.092V106.192V107.785H48.2269V102.805H56.1297V107.785H54.6099V106.192V106.092C54.6099 105.992 54.6099 105.992 54.6099 105.893C54.6099 105.693 54.5086 105.594 54.5086 105.395C54.4073 105.195 54.306 105.096 54.2047 104.996C54.002 104.996 53.9007 104.996 53.9007 104.996C53.7994 104.996 53.7994 105.096 53.7994 105.195V111.87C53.7994 111.969 53.9007 111.969 53.9007 111.969C53.9007 111.969 53.9007 112.069 54.002 112.069L54.1033 112.169C54.1033 112.169 54.2047 112.169 54.306 112.268C54.306 112.268 54.4073 112.268 54.5086 112.268C54.6099 112.268 54.7112 112.268 54.7112 112.368V114.46H49.6454V112.268C49.7467 112.169 49.7467 112.169 49.848 112.169Z" fill="white"/>
<path d="M60.689 104.797C60.689 104.897 60.689 104.897 60.689 104.797C60.5876 104.897 60.5876 104.897 60.4863 104.897L60.385 104.996C60.385 105.096 60.2837 105.096 60.2837 105.195C60.2837 105.195 60.2837 105.195 60.2837 105.295C60.2837 105.295 60.2837 105.295 60.2837 105.395L60.9929 106.59L61.3982 105.395C61.3982 105.295 61.3982 105.295 61.3982 105.295C61.3982 105.295 61.3982 105.195 61.2969 105.195C61.2969 105.195 61.2969 105.096 61.1955 105.096L61.0942 104.996V102.805H64.6403V104.996C64.6403 104.996 64.6403 104.996 64.539 104.996C64.3364 104.996 64.1337 104.996 63.9311 105.096C63.7285 105.195 63.6272 105.295 63.5258 105.494L62.1074 109.479V111.77C62.2087 111.969 62.31 112.069 62.4113 112.169C62.5127 112.268 62.7153 112.268 62.8166 112.368C62.8166 112.368 62.8166 112.368 62.9179 112.368C62.9179 112.368 62.9179 112.368 63.0193 112.368V114.46H58.2573V112.368C58.2573 112.368 58.2573 112.368 58.3587 112.368C58.3587 112.368 58.3587 112.368 58.46 112.368C58.6626 112.268 58.7639 112.268 58.8652 112.169C58.9666 112.069 59.0679 111.969 59.0679 111.77V109.479L57.1429 105.395C57.1429 105.395 57.1429 105.395 57.1429 105.295C57.1429 105.295 57.1429 105.295 57.1429 105.195C57.0415 105.096 56.9402 104.996 56.8389 104.897C56.7376 104.797 56.6363 104.797 56.4336 104.797V102.605H60.7903V104.797H60.689Z" fill="white"/>
<path d="M28.4701 118.444C29.078 118.644 29.6859 119.042 30.0912 119.64C30.2938 119.839 30.3951 120.138 30.4965 120.437C30.5978 120.736 30.6991 121.034 30.6991 121.333V121.433V121.533C30.6991 121.831 30.6991 122.031 30.5978 122.329C30.4965 122.628 30.3951 122.828 30.2938 123.027C30.1925 123.126 30.0912 123.226 30.0912 123.326C29.9899 123.425 29.9899 123.425 29.8886 123.525C29.8886 123.624 29.7872 123.624 29.6859 123.724C29.5846 123.824 29.4833 123.824 29.382 123.923C29.7872 124.123 30.0912 124.421 30.3951 124.82C30.6991 125.218 30.8004 125.617 30.9017 126.115C30.9017 126.215 30.9017 126.314 30.9017 126.414C30.9017 126.513 30.9017 126.613 30.9017 126.713C30.9017 126.912 30.9017 127.111 30.9017 127.31C30.9017 127.51 30.8004 127.709 30.8004 127.908C30.6991 128.306 30.3951 128.705 30.0912 129.004C29.7872 129.303 29.382 129.502 29.078 129.701C28.8754 129.701 28.6727 129.801 28.4701 129.801C28.2675 129.801 28.0648 129.801 27.8622 129.9C27.6596 129.9 27.4569 129.9 27.2543 129.9C27.0517 129.9 26.849 129.9 26.6464 129.9H22.5937V127.808H22.695H22.7964C22.8977 127.808 22.999 127.709 23.2016 127.709C23.3029 127.609 23.4043 127.51 23.5056 127.41V121.134C23.5056 121.134 23.5056 121.134 23.5056 121.034V120.935C23.4043 120.835 23.3029 120.636 23.2016 120.636C23.1003 120.536 22.8977 120.536 22.695 120.437V118.245H26.6464C27.153 118.245 27.8622 118.345 28.4701 118.444ZM27.6596 121.931C27.6596 121.333 27.5583 121.034 27.3556 120.935C27.153 120.835 26.9504 120.736 26.7477 120.835H26.6464H26.5451L26.4438 123.126H26.5451H26.6464C26.849 123.126 27.0517 123.126 27.2543 123.027C27.5583 122.828 27.6596 122.529 27.6596 121.931ZM27.6596 126.414C27.6596 125.816 27.5583 125.517 27.4569 125.318C27.3556 125.119 27.153 125.119 26.9504 125.119H26.849H26.7477H26.6464H26.5451L26.4438 127.709H26.5451H26.6464C26.849 127.709 27.0517 127.709 27.2543 127.609C27.5583 127.51 27.6596 127.111 27.6596 126.414Z" fill="white"/>
<path d="M39.615 127.211C39.615 127.31 39.615 127.41 39.7163 127.51C39.8176 127.609 39.919 127.609 40.0203 127.709H40.1216H40.2229V129.801H35.7649V127.609C35.7649 127.609 35.7649 127.609 35.8663 127.609C35.8663 127.609 35.8663 127.609 35.9676 127.609C36.0689 127.609 36.1702 127.51 36.2715 127.41C36.3729 127.31 36.3729 127.211 36.3729 127.111L36.1702 126.314H34.8531L34.6505 127.111C34.6505 127.211 34.7518 127.31 34.8531 127.41C34.9544 127.51 35.157 127.51 35.3597 127.51V129.602H31.4083V127.41C31.5096 127.41 31.5096 127.41 31.6109 127.41H31.7123C31.8136 127.41 31.9149 127.31 31.9149 127.31C32.0162 127.31 32.0162 127.211 32.1175 127.111C32.1175 127.111 32.1175 127.011 32.2188 127.011C32.2188 127.011 32.2188 126.912 32.3202 126.912L34.1439 117.946H37.4873L39.615 127.211ZM34.8531 124.92H35.9676L35.3597 122.529L34.8531 124.92Z" fill="white"/>
<path d="M50.0507 120.337C49.9493 120.337 49.9493 120.437 49.848 120.437C49.7467 120.437 49.7467 120.437 49.6454 120.536C49.5441 120.536 49.4428 120.636 49.3414 120.636C49.2401 120.636 49.1388 120.736 49.1388 120.835C49.0375 120.935 48.8349 121.134 48.6322 121.433C48.4296 121.732 48.227 122.031 47.8217 122.628L49.5441 127.41C49.5441 127.51 49.6454 127.51 49.6454 127.609L49.7467 127.709L49.848 127.808C49.848 127.808 49.9493 127.908 50.0507 127.908C50.0507 127.908 50.152 127.908 50.152 128.008C50.152 128.008 50.2533 128.008 50.2533 128.107L50.152 130.199H45.7953V128.107C45.8967 128.107 45.8967 128.008 45.998 128.008C45.998 128.008 46.0993 127.908 46.0993 127.808C46.0993 127.808 46.0993 127.808 46.0993 127.709C46.0993 127.709 46.0993 127.709 46.0993 127.609L45.4914 125.617C45.4914 125.617 45.4914 125.617 45.3901 125.716C45.2888 125.816 45.2888 125.816 45.1874 125.916C45.0861 126.015 45.0861 126.015 44.9848 126.115C44.8835 126.215 44.8835 126.215 44.8835 126.215V127.41C44.8835 127.51 44.8835 127.709 44.9848 127.709C45.0861 127.808 45.0861 127.808 45.1874 127.908C45.1874 127.908 45.2888 127.908 45.2888 128.008C45.2888 128.008 45.3901 128.008 45.3901 128.107V130.1H40.9321V128.107C40.9321 128.107 41.0334 128.107 41.0334 128.008C41.0334 128.008 41.1348 128.008 41.1348 127.908C41.2361 127.908 41.2361 127.808 41.3374 127.808L41.4387 127.709L41.54 127.609L41.6413 127.51V121.234C41.6413 121.034 41.54 120.935 41.4387 120.835C41.3374 120.736 41.2361 120.736 41.1348 120.636H41.0334H40.9321V118.544H45.3901V120.736C45.2888 120.835 45.0861 120.835 44.9848 120.935C44.8835 121.034 44.8835 121.134 44.8835 121.234V123.126C45.3901 122.429 45.7953 121.931 45.8967 121.533C46.0993 121.134 46.0993 120.935 46.0993 120.835C46.0993 120.736 46.0993 120.736 46.0993 120.736C46.0993 120.736 46.0993 120.736 46.0993 120.636V118.444L50.152 118.345V120.337H50.0507Z" fill="white"/>
<path d="M58.6626 122.728H56.9402V120.835C56.9402 120.636 56.8389 120.536 56.6363 120.437C56.4336 120.337 56.1297 120.337 55.9271 120.337C55.6231 120.337 55.4205 120.437 55.1165 120.536C54.9139 120.636 54.7112 120.835 54.7112 121.034V122.828C55.0152 122.828 55.2178 122.828 55.2178 122.628C55.3192 122.529 55.3191 122.329 55.3191 121.931H56.231V125.816H55.3191C55.3191 125.418 55.3192 125.218 55.2178 125.119C55.1165 125.019 54.9139 125.019 54.7112 125.019V127.211C54.7112 127.41 54.8126 127.51 55.1165 127.609C55.3192 127.709 55.6231 127.808 55.9271 127.808C56.231 127.808 56.4336 127.709 56.7376 127.609C56.9402 127.51 57.0415 127.31 57.0415 127.111V124.72H58.7639V129.9H50.8612V127.709C51.0638 127.709 51.2665 127.709 51.4691 127.51C51.6717 127.41 51.7731 127.211 51.7731 127.011V120.935C51.7731 120.736 51.6717 120.636 51.5704 120.536C51.3678 120.437 51.1651 120.337 50.9625 120.337V118.146H58.8652V122.728H58.6626Z" fill="white"/>
<path d="M65.1469 118.444C65.7548 118.644 66.3627 119.042 66.768 119.64C66.9706 119.839 67.0719 120.138 67.1733 120.437C67.2746 120.736 67.3759 121.034 67.3759 121.333V121.433V121.533C67.3759 121.831 67.3759 122.031 67.2746 122.329C67.1733 122.628 67.0719 122.828 66.9706 123.027C66.9706 123.126 66.9706 123.126 66.8693 123.226C66.768 123.326 66.768 123.425 66.6667 123.525L66.5653 123.625L66.464 123.724C66.3627 123.824 66.2614 123.923 66.1601 123.923C66.0588 124.023 65.9574 124.023 65.9574 124.023C66.464 124.123 66.8693 124.421 66.9706 124.82C67.1733 125.218 67.2746 125.617 67.2746 126.015C67.2746 126.115 67.2746 126.115 67.2746 126.215C67.2746 126.314 67.2746 126.314 67.2746 126.414C67.2746 126.513 67.2746 126.613 67.2746 126.812C67.2746 126.912 67.2746 127.011 67.2746 127.211C67.2746 127.51 67.2746 127.709 67.2746 127.808C67.2746 128.008 67.2746 128.107 67.3759 128.107C67.4772 128.107 67.5785 128.107 67.5785 128.008C67.5785 127.908 67.6798 127.908 67.6798 127.808V127.709V127.609H67.9838C67.9838 127.609 67.9838 127.609 67.9838 127.709C67.9838 127.709 67.9838 127.808 67.9838 127.908C67.9838 128.008 67.9838 128.107 67.9838 128.207C67.9838 128.307 67.9838 128.406 67.9838 128.506C67.9838 128.605 67.9838 128.705 67.8825 128.904C67.7812 129.203 67.5785 129.502 67.2746 129.801C66.9706 130.1 66.5654 130.199 65.8561 130.199C65.0456 130.199 64.539 129.9 64.4377 129.402C64.2351 128.904 64.2351 128.307 64.1337 127.709C64.1337 127.609 64.1337 127.609 64.1337 127.609V127.51V127.41V127.31C64.1337 126.912 64.1337 126.414 64.0324 126.015C64.0324 125.617 63.8298 125.218 63.6272 124.92L63.5258 124.82C63.5258 124.82 63.4245 124.82 63.4245 124.72H63.3232H63.2219V127.609C63.3232 127.808 63.4245 127.908 63.5258 127.908C63.6272 128.008 63.8298 128.008 64.0324 128.008V130.1H59.1692V128.008H59.2705H59.3718C59.4732 128.008 59.5745 127.908 59.7771 127.908C59.8784 127.808 59.9797 127.709 60.0811 127.609V121.333C60.0811 121.333 60.0811 121.333 60.0811 121.234V121.134C59.9797 121.034 59.8784 120.835 59.7771 120.835C59.6758 120.736 59.4732 120.736 59.2705 120.636V118.444H63.2219C63.7285 118.245 64.4377 118.345 65.1469 118.444ZM64.2351 121.931C64.2351 121.333 64.1337 121.034 63.9311 120.935C63.7285 120.835 63.5258 120.736 63.3232 120.835H63.2219H63.1206L63.0193 123.126H63.1206H63.2219C63.4245 123.126 63.6272 123.126 63.8298 123.027C64.1337 122.828 64.2351 122.529 64.2351 121.931Z" fill="white"/>
<path d="M73.151 120.337C73.151 120.437 73.151 120.437 73.151 120.337C73.0496 120.437 73.0496 120.437 72.9483 120.437L72.847 120.536C72.847 120.636 72.7457 120.636 72.7457 120.736C72.7457 120.736 72.7457 120.736 72.7457 120.835C72.7457 120.835 72.7457 120.835 72.7457 120.935L73.4549 122.13L73.8602 120.935C73.8602 120.835 73.8602 120.835 73.8602 120.835C73.8602 120.835 73.8602 120.736 73.7589 120.736C73.7589 120.736 73.7589 120.636 73.6575 120.636L73.5562 120.536V118.345H77.1023V120.536C77.1023 120.536 77.1023 120.536 77.001 120.536C76.8997 120.536 77.001 120.536 77.001 120.536C76.7984 120.536 76.5958 120.536 76.3931 120.636C76.1905 120.736 76.0892 120.835 75.9878 121.034L74.5694 125.019V127.31C74.6707 127.51 74.772 127.609 74.8734 127.709C74.9747 127.808 75.1773 127.808 75.2786 127.908C75.2786 127.908 75.2786 127.908 75.3799 127.908C75.3799 127.908 75.3799 127.908 75.4813 127.908V130H70.7194V127.908C70.7194 127.908 70.7194 127.908 70.8207 127.908C70.8207 127.908 70.8207 127.908 70.922 127.908C71.1246 127.808 71.2259 127.808 71.3273 127.709C71.4286 127.609 71.5299 127.51 71.5299 127.31V125.019L69.6049 120.935C69.6049 120.935 69.6049 120.935 69.6049 120.835C69.6049 120.835 69.6049 120.835 69.6049 120.736C69.5035 120.636 69.4022 120.536 69.3009 120.437C69.1996 120.337 69.0983 120.337 68.8956 120.337V118.146H73.2523V120.337H73.151Z" fill="white"/>
<path d="M5.16717 82.6824V73.2188H8.40932V74.4141H6.58561V77.2034H8.20669V78.3988H6.58561V81.3873H8.40932V82.6824H5.16717Z" fill="white"/>
<path d="M9.42249 80.092V79.295H10.8409V80.2912C10.8409 80.7893 10.8409 81.1877 10.9423 81.387C11.0436 81.5862 11.2462 81.6858 11.4488 81.6858C11.6515 81.6858 11.8541 81.5862 11.9554 81.387C12.0567 81.1877 12.0567 80.8889 12.0567 80.4904C12.0567 80.092 11.9554 79.7931 11.8541 79.4943C11.7528 79.1954 11.4488 78.8966 11.1449 78.5977L10.4357 77.9004C10.1317 77.5019 9.82776 77.1034 9.72644 76.705C9.52381 76.3065 9.42249 75.908 9.42249 75.41C9.42249 74.613 9.62513 74.0153 9.92908 73.7165C10.233 73.318 10.7396 73.1188 11.5502 73.1188C12.2594 73.1188 12.766 73.318 13.0699 73.8161C13.3739 74.2146 13.4752 74.9119 13.4752 75.7088V76.3065H12.1581V75.7088C12.1581 75.2107 12.1581 74.9119 12.0567 74.7126C11.9554 74.5134 11.8541 74.4138 11.5502 74.4138C11.3475 74.4138 11.1449 74.5134 11.0436 74.613C10.9422 74.8123 10.9423 75.0115 10.9423 75.3103C10.9423 75.6092 10.9422 75.8084 11.1449 76.0077C11.2462 76.2069 11.4488 76.4061 11.6515 76.705L12.462 77.5019C12.8673 77.9004 13.1712 78.3985 13.3739 78.7969C13.5765 79.1954 13.6778 79.6935 13.6778 80.1916C13.6778 81.0881 13.5765 81.6858 13.2725 82.1839C12.9686 82.5824 12.462 82.7816 11.6515 82.7816C10.9422 82.7816 10.3343 82.5824 10.0304 82.0843C9.52381 81.6858 9.42249 80.9885 9.42249 80.092Z" fill="white"/>
<path d="M14.9949 82.682V74.5134H13.8804V73.318H17.5279V74.5134H16.4134V82.682H14.9949Z" fill="white"/>
<path d="M18.3384 82.682V73.2184H20.4661C21.1753 73.2184 21.6819 73.4176 21.9858 73.8161C22.2898 74.2146 22.4924 74.8123 22.4924 75.6092V79.8927C22.4924 80.8889 22.2898 81.5862 21.9858 81.9847C21.6819 82.3831 21.1753 82.682 20.3647 82.682H18.3384ZM19.8582 81.5862H20.2634C20.5674 81.5862 20.77 81.4866 20.8713 81.2874C20.9726 81.0881 21.074 80.7893 21.074 80.3908V75.7088C21.074 75.2107 20.9726 74.9119 20.8713 74.7126C20.77 74.5134 20.5674 74.4138 20.2634 74.4138H19.8582V81.5862Z" fill="white"/>
<path d="M80.2432 82.682V75.0115C80.1418 75.1111 79.9392 75.3103 79.7366 75.3103C79.5339 75.41 79.3313 75.41 79.0274 75.41V74.3142C79.3313 74.3142 79.6353 74.1149 79.9392 73.9157C80.2432 73.7165 80.4458 73.4176 80.5471 73.1188H81.6616V82.682H80.2432Z" fill="white"/>
<path d="M86.5248 82.1839C86.2209 82.5824 85.7143 82.8812 85.0051 82.8812C84.2958 82.8812 83.7893 82.682 83.4853 82.2835C83.1814 81.885 82.9787 81.2874 82.9787 80.4904V79.9923H84.3972V80.1916C84.3972 80.7893 84.3972 81.1877 84.4985 81.387C84.5998 81.5862 84.7011 81.6858 84.9038 81.6858C85.1064 81.6858 85.2077 81.6858 85.309 81.5862C85.309 81.4866 85.4103 81.387 85.4103 81.2873C85.4103 81.1877 85.4103 80.8889 85.4103 80.4904V79.0958C85.2077 79.1954 84.9038 79.295 84.4985 79.295C83.8906 79.295 83.384 79.0958 83.08 78.5977C82.7761 78.0996 82.6748 77.4023 82.6748 76.5057V76.2069C82.6748 75.0115 82.8774 74.2145 83.2827 73.8161C83.5866 73.5172 84.0932 73.318 84.7011 73.318C85.309 73.318 85.8156 73.4176 86.0182 73.7165C86.3222 73.9157 86.5248 74.3142 86.6261 74.7126C86.7275 75.1111 86.7275 75.7088 86.7275 76.3065V80.0919C86.9301 80.8889 86.8288 81.6858 86.5248 82.1839ZM84.9038 78C85.309 78 85.5117 77.8008 85.5117 77.5019V75.7088C85.5117 75.2107 85.5117 74.9119 85.4103 74.7126C85.309 74.5134 85.2077 74.4138 84.9038 74.4138C84.7011 74.4138 84.4985 74.5134 84.3972 74.7126C84.2959 74.9119 84.2958 75.2107 84.2958 75.7088V76.5057C84.2958 77.0038 84.2959 77.4023 84.3972 77.6015C84.4985 77.9004 84.7011 78 84.9038 78Z" fill="white"/>
<path d="M90.2736 82.7816C88.9564 82.7816 88.3485 82.1839 88.3485 80.8889V79.6935H89.6657V80.6897C89.6657 81.0881 89.767 81.387 89.9696 81.4866C90.0709 81.4866 90.1722 81.5862 90.2736 81.5862C90.5775 81.5862 90.7801 81.2874 90.7801 80.6897V78.2988C90.7801 78 90.7801 77.7011 90.6788 77.5019C90.5775 77.3027 90.4762 77.2031 90.2736 77.2031C89.8683 77.2031 89.6657 77.5019 89.6657 78.0996L88.3485 78V73.2184H91.8946V74.5134H89.6657V76.4061C89.767 76.3065 89.8683 76.2069 90.0709 76.1073C90.2736 76.0077 90.4762 76.0077 90.6788 76.0077C91.2867 76.0077 91.5907 76.2069 91.8946 76.705C92.0973 77.2031 92.1986 78 92.1986 78.9962C92.1986 80.092 92.1986 80.7893 92.0973 81.1877C91.996 81.5862 91.8946 81.8851 91.7933 82.0843C91.4894 82.5824 90.9828 82.7816 90.2736 82.7816Z" fill="white"/>
<path d="M94.2249 82.682V75.0115C94.1236 75.1111 93.921 75.3103 93.7183 75.3103C93.5157 75.41 93.3131 75.41 93.0091 75.41V74.3142C93.3131 74.3142 93.617 74.1149 93.921 73.9157C94.2249 73.7165 94.4276 73.4176 94.5289 73.1188H95.6434V82.682H94.2249Z" fill="white"/>
<path d="M74.6707 8.56704C72.7457 7.67049 70.5167 8.46743 69.7062 10.4598C68.997 12.2529 69.5035 14.2452 71.0233 15.341L60.385 32.8736C59.8784 32.4751 59.3718 32.1762 58.8653 31.8774L61.0942 10.4598C61.2969 10.4598 61.4995 10.4598 61.6008 10.4598C63.4245 10.3601 64.9443 8.96551 65.2482 6.97317C65.4509 4.7816 63.9311 2.88888 61.9048 2.59003C61.6008 2.59003 61.3982 2.59003 61.0942 2.59003C59.2705 2.68965 57.6494 4.08428 57.4468 6.07662C57.2442 7.96934 58.46 9.76245 60.0811 10.2605L54.7113 29.7854C54.4073 29.6858 54.1033 29.5862 53.7994 29.5862C53.6981 29.5862 53.6981 29.5862 53.5968 29.4866C53.3941 29.387 53.1915 29.387 52.8875 29.387C52.6849 29.387 52.5836 29.2874 52.381 29.2874L50.3546 7.86973H50.4559C52.1783 7.67049 53.5968 6.27586 53.7994 4.38313C54.002 2.19156 52.4823 0.298843 50.4559 0.0996094C50.3546 0.0996094 50.152 0.0996094 50.0507 0.0996094C49.9493 0.0996094 49.7467 0.0996094 49.6454 0.0996094C47.6191 0.298843 46.0993 2.29118 46.3019 4.38313C46.5046 6.27586 47.923 7.67049 49.6454 7.86973H49.7467L47.6191 29.2874C47.4164 29.2874 47.3151 29.387 47.1125 29.387C46.9098 29.387 46.7072 29.4866 46.4032 29.4866C46.3019 29.4866 46.3019 29.4866 46.2006 29.5862C45.8967 29.6858 45.5927 29.6858 45.2888 29.7854L39.8176 10.2605C41.54 9.76245 42.7558 7.96934 42.5532 6.07662C42.3506 4.08428 40.8308 2.68965 38.9058 2.59003C38.6018 2.59003 38.3992 2.59003 38.0952 2.59003C36.0689 2.78926 34.5491 4.7816 34.7518 6.97317C34.9544 8.96551 36.4742 10.4598 38.3992 10.4598C38.6018 10.4598 38.7031 10.4598 38.9058 10.4598L41.1348 31.8774C40.6282 32.1762 40.1216 32.4751 39.615 32.8736L28.9767 15.341C30.3951 14.2452 31.003 12.1532 30.2938 10.4598C29.4833 8.46743 27.2543 7.67049 25.3293 8.56704C23.4043 9.46359 22.5937 11.8544 23.4043 13.8467C24.2148 15.8391 26.4438 16.636 28.3688 15.7395L36.7781 35.2644C36.3728 35.7625 36.0689 36.2605 35.6636 36.7586C37.7913 38.4521 38.8045 39.3487 38.8045 39.3487C39.7163 37.954 44.8835 36.659 49.9493 36.3601C54.9139 36.659 60.1824 37.954 61.0942 39.3487C61.0942 39.3487 62.1074 38.4521 64.2351 36.7586C63.9311 36.2605 63.5258 35.7625 63.1206 35.2644L71.5299 15.7395C73.4549 16.7356 75.5826 15.8391 76.4944 13.8467C77.4063 11.8544 76.5957 9.46359 74.6707 8.56704Z" fill="white"/>
<path d="M92.1986 38.6514C90.9828 39.548 89.767 40.7434 88.2472 42.3372C87.8419 42.7357 87.4367 43.2338 87.1327 43.6323C85.7143 45.2261 84.4985 46.4215 83.384 47.0192L79.6353 42.2376L58.5613 58.2759L54.5086 61.3641L9.32118 95.7319L13.0699 100.513C12.1581 101.31 10.8409 102.008 9.21986 102.805C8.71327 103.104 8.20669 103.303 7.7001 103.602C5.77508 104.598 4.25532 105.494 3.14083 106.391C-0.709219 109.28 -0.303951 111.571 0.810538 112.966C1.11449 113.364 1.82371 114.261 3.14083 114.36C4.45795 114.46 5.87639 113.862 7.7001 112.567C8.91591 111.671 10.233 110.376 11.7528 108.782C12.462 107.985 13.0699 107.287 13.5765 106.69C14.2857 105.793 14.9949 104.996 15.6028 104.498C15.7042 104.399 15.8055 104.299 15.9068 104.299L19.8582 109.28L65.0456 74.912L69.0983 71.8238L90.1722 55.6859L86.3222 50.8047C86.5248 50.5058 86.7275 50.3066 87.0314 50.0077C87.6393 49.5097 88.6525 49.1112 89.6656 48.6131C90.4762 48.3143 91.2867 47.9158 92.1986 47.4177C94.1236 46.4215 95.7447 45.4254 96.9605 44.5288C98.7842 43.1342 99.696 41.8392 99.8987 40.6438C100.101 39.3487 99.3921 38.5518 99.0882 38.1533C98.1763 36.7587 96.0486 35.7625 92.1986 38.6514ZM11.5502 104.996C11.0436 105.694 10.4357 106.291 9.82776 106.989C8.40932 108.483 7.19352 109.678 6.07903 110.475C4.35664 111.77 3.64742 111.87 3.34347 111.77C3.14083 111.77 3.03951 111.671 2.83688 111.372C2.22898 110.575 3.5461 109.28 4.66059 108.383C5.67376 107.586 7.0922 106.69 8.91591 105.793C9.42249 105.494 9.92908 105.295 10.4357 104.996C11.0436 104.697 11.7528 104.399 12.2594 104C12.0567 104.399 11.7528 104.697 11.5502 104.996ZM86.6261 55.2874L67.5785 69.7319L63.5258 72.82L20.2634 105.594L19.6555 104.797L62.8166 72.0231L66.8693 68.9349L85.9169 54.4905L86.6261 55.2874ZM84.3972 52.4982L65.3495 66.9426L61.2969 70.0307L18.1358 102.805L12.8673 96.1303L56.0284 63.3564L60.0811 60.2683L79.1287 45.8238L84.3972 52.4982ZM97.4671 40.2453C97.4671 40.5441 97.1631 41.2415 95.4407 42.5365C94.3262 43.3334 92.9078 44.23 91.0841 45.2261C90.2736 45.6246 89.463 46.0231 88.6525 46.4215C88.2472 46.6208 87.9433 46.7204 87.6393 46.9196C88.1459 46.4215 88.5512 45.9235 89.0578 45.4254C89.463 45.0269 89.767 44.6284 90.1722 44.1303C91.4894 42.7357 92.7052 41.5403 93.7183 40.7434C94.9341 39.8468 96.5552 38.8507 97.1631 39.7472C97.4671 39.9464 97.4671 40.0461 97.4671 40.2453Z" fill="white"/>
<path d="M96.9605 106.391C95.7447 105.494 94.2249 104.598 92.4012 103.602C91.8946 103.303 91.388 103.103 90.8815 102.805C89.2604 102.008 87.9433 101.31 87.0314 100.513L90.7801 95.7318L63.3232 74.8123C62.614 75.41 62.0061 75.908 61.2969 76.4061L87.1327 96.1303L81.8642 102.805L54.2047 81.8851C53.4954 82.3831 52.8875 82.9808 52.2796 83.4789L80.3445 104.797L79.7366 105.594L51.4691 84.1762C50.9625 84.5747 50.4559 85.0728 49.9493 85.5709C49.848 85.6705 49.6454 85.7701 49.5441 85.9693L80.1418 109.28L84.0932 104.299C84.1945 104.398 84.2958 104.398 84.3972 104.498C85.0051 104.996 85.7143 105.793 86.4235 106.69C86.9301 107.387 87.538 108.084 88.2472 108.782C89.767 110.375 91.0841 111.67 92.2999 112.567C94.1236 113.962 95.6434 114.559 96.8592 114.36C98.1763 114.261 98.7842 113.364 99.1895 112.966C100.405 111.571 100.811 109.28 96.9605 106.391ZM97.2644 111.372C97.0618 111.67 96.9605 111.77 96.7579 111.77C96.4539 111.77 95.7447 111.77 94.0223 110.475C92.9078 109.678 91.692 108.483 90.2736 106.989C89.6656 106.291 89.0578 105.594 88.5512 104.996C88.3485 104.697 88.0446 104.398 87.8419 104.1C88.4498 104.398 89.0578 104.697 89.6657 105.096C90.1722 105.295 90.6788 105.594 91.1854 105.893C92.9078 106.789 94.3262 107.686 95.4407 108.483C96.5552 109.28 97.8723 110.575 97.2644 111.372Z" fill="white"/>
<path d="M36.6765 76.0077C36.9804 75.8085 37.1831 75.5096 37.487 75.3104C37.8923 75.0115 38.2975 74.7127 38.7028 74.4138L36.4738 72.7203L32.4212 69.6322L13.4749 55.2874L14.0828 54.4904L33.1304 68.9349L37.1831 72.023L39.6147 73.9157C40.3239 73.4176 41.0331 72.9196 41.7423 72.4215L38.7028 70.1303L34.6501 67.0422L15.6025 52.4981L20.871 45.8238L39.9186 60.2682L43.9713 63.3563L49.0372 67.2414C49.8477 66.7433 50.5569 66.3448 51.3675 65.8468L45.5924 61.364L41.5397 58.2759L20.4657 42.2376L16.717 47.0192C15.6025 46.4215 14.3867 45.2261 12.9683 43.6322C12.563 43.2337 12.1577 42.7356 11.8538 42.3372C10.4353 40.8429 9.11822 39.5479 7.90241 38.6514C4.05236 35.7625 1.9247 36.7586 0.911528 38.0537C0.607577 38.4521 -0.101643 39.3487 0.100991 40.5441C0.202309 41.8391 1.21548 43.1341 3.03919 44.5288C4.25499 45.4253 5.77475 46.4215 7.80109 47.4176C8.71295 47.9157 9.6248 48.3142 10.334 48.613C11.4485 49.1111 12.3604 49.5096 13.0696 50.0077C13.3735 50.2069 13.5762 50.5058 13.7788 50.8046L9.92875 55.6858L30.9014 71.7242L34.9541 74.8123L36.6765 76.0077ZM11.3472 46.3219C10.5367 46.023 9.72612 45.6245 8.91558 45.1265C7.09187 44.1303 5.57212 43.2337 4.55894 42.4368C2.83655 41.1418 2.63392 40.4445 2.5326 40.1456C2.5326 39.9464 2.5326 39.8468 2.83655 39.5479C3.44446 38.751 5.06553 39.6475 6.28134 40.5441C7.29451 41.341 8.51031 42.4368 9.82744 43.931C10.2327 44.3295 10.638 44.8276 10.9419 45.2261C11.4485 45.7242 11.8538 46.3219 12.3604 46.7203C12.0564 46.7203 11.7525 46.5211 11.3472 46.3219Z" fill="white"/>
</g>
<defs>
<clipPath id="clip0_1_2421">
<rect width="100" height="130" fill="white"/>
</clipPath>
</defs>
</svg>
